<svg xmlns="http://www.w3.org/2000/svg" width="192" height="192" viewBox="0 0 192 192">
  <rect width="192" height="192" fill="#0B1426" rx="24"/>
  <g transform="translate(96,96)">
    <!-- Ship wheel outer ring -->
    <circle cx="0" cy="0" r="56" fill="none" stroke="#3B82F6" stroke-width="6"/>
    <!-- Hub -->
    <circle cx="0" cy="0" r="12" fill="none" stroke="#3B82F6" stroke-width="5"/>
    <!-- Spokes -->
    <line x1="0" y1="-56" x2="0" y2="-12" stroke="#3B82F6" stroke-width="5" stroke-linecap="round"/>
    <line x1="0" y1="56" x2="0" y2="12" stroke="#3B82F6" stroke-width="5" stroke-linecap="round"/>
    <line x1="-56" y1="0" x2="-12" y2="0" stroke="#3B82F6" stroke-width="5" stroke-linecap="round"/>
    <line x1="56" y1="0" x2="12" y2="0" stroke="#3B82F6" stroke-width="5" stroke-linecap="round"/>
    <line x1="-39.6" y1="-39.6" x2="-8.5" y2="-8.5" stroke="#3B82F6" stroke-width="5" stroke-linecap="round"/>
    <line x1="39.6" y1="39.6" x2="8.5" y2="8.5" stroke="#3B82F6" stroke-width="5" stroke-linecap="round"/>
    <line x1="-39.6" y1="39.6" x2="-8.5" y2="8.5" stroke="#3B82F6" stroke-width="5" stroke-linecap="round"/>
    <line x1="39.6" y1="-39.6" x2="8.5" y2="-8.5" stroke="#3B82F6" stroke-width="5" stroke-linecap="round"/>
    <!-- Handle knobs on outer ring -->
    <circle cx="0" cy="-56" r="6" fill="#3B82F6"/>
    <circle cx="0" cy="56" r="6" fill="#3B82F6"/>
    <circle cx="-56" cy="0" r="6" fill="#3B82F6"/>
    <circle cx="56" cy="0" r="6" fill="#3B82F6"/>
    <circle cx="-39.6" cy="-39.6" r="6" fill="#3B82F6"/>
    <circle cx="39.6" cy="39.6" r="6" fill="#3B82F6"/>
    <circle cx="-39.6" cy="39.6" r="6" fill="#3B82F6"/>
    <circle cx="39.6" cy="-39.6" r="6" fill="#3B82F6"/>
  </g>
</svg>
